HIERARCHY
ROOT Hips
{
	OFFSET 0.000000 0.000000 0.000000
	CHANNELS 6 Xposition Yposition Zposition Zrotation Yrotation Xrotation 
	JOINT LHipJoint
	{
		OFFSET 0.000000 0.000000 0.000000
		CHANNELS 3 Zrotation Yrotation Xrotation
		JOINT LeftUpLeg
		{
			OFFSET 1.363060 -1.794630 0.839290
			CHANNELS 3 Zrotation Yrotation Xrotation
			JOINT LeftLeg
			{
				OFFSET 2.448110 -6.726130 0.000000
				CHANNELS 3 Zrotation Yrotation Xrotation
				JOINT LeftFoot
				{
					OFFSET 2.562200 -7.039590 0.000000
					CHANNELS 3 Zrotation Yrotation Xrotation
					JOINT LeftToeBase
					{
						OFFSET 0.157640 -0.433110 2.322550
						CHANNELS 3 Zrotation Yrotation Xrotation
						End Site
						{
							OFFSET 0.000000 0.000000 0.000000
						}
					}
				}
			}
		}
	}
	JOINT RHipJoint
	{
		OFFSET 0.000000 0.000000 0.000000
		CHANNELS 3 Zrotation Yrotation Xrotation
		JOINT RightUpLeg
		{
			OFFSET -1.305520 -1.794630 0.839290
			CHANNELS 3 Zrotation Yrotation Xrotation
			JOINT RightLeg
			{
				OFFSET -2.542530 -6.985550 0.000000
				CHANNELS 3 Zrotation Yrotation Xrotation
				JOINT RightFoot
				{
					OFFSET -2.568260 -7.056230 0.000000
					CHANNELS 3 Zrotation Yrotation Xrotation
					JOINT RightToeBase
					{
						OFFSET -0.164730 -0.452590 2.363150
						CHANNELS 3 Zrotation Yrotation Xrotation
						End Site
						{
							OFFSET 0.000000 0.000000 0.000000
						}
					}
				}
			}
		}
	}
	JOINT LowerBack
	{
		OFFSET 0.000000 0.000000 0.000000
		CHANNELS 3 Zrotation Yrotation Xrotation
		JOINT Spine
		{
			OFFSET 0.028270 2.035590 -0.193380
			CHANNELS 3 Zrotation Yrotation Xrotation
			JOINT Spine1
			{
				OFFSET 0.056720 2.048850 -0.042750
				CHANNELS 3 Zrotation Yrotation Xrotation
				JOINT Neck
				{
					OFFSET 0.000000 0.000000 0.000000
					CHANNELS 3 Zrotation Yrotation Xrotation
					JOINT Neck1
					{
						OFFSET -0.054170 1.746240 0.172020
						CHANNELS 3 Zrotation Yrotation Xrotation
						JOINT Head
						{
							OFFSET 0.104070 1.761360 -0.123970
							CHANNELS 3 Zrotation Yrotation Xrotation
							End Site
							{
								OFFSET 0.000000 0.000000 0.000000
							}
						}
					}
				}
				JOINT LeftShoulder
				{
					OFFSET 0.000000 0.000000 0.000000
					CHANNELS 3 Zrotation Yrotation Xrotation
					JOINT LeftArm
					{
						OFFSET 3.362410 1.200890 -0.311210
						CHANNELS 3 Zrotation Yrotation Xrotation
						JOINT LeftForeArm
						{
							OFFSET 4.983000 -0.000000 -0.000000
							CHANNELS 3 Zrotation Yrotation Xrotation
							JOINT LeftHand
							{
								OFFSET 3.483560 -0.000000 -0.000000
								CHANNELS 3 Zrotation Yrotation Xrotation
								JOINT LeftFingerBase
								{
									OFFSET 0.000000 0.000000 0.000000
									CHANNELS 3 Zrotation Yrotation Xrotation
									JOINT LeftHandIndex1
									{
										OFFSET 0.715260 -0.000000 -0.000000
										CHANNELS 3 Zrotation Yrotation Xrotation
										End Site
										{
											OFFSET 0.000000 0.000000 0.000000
										}
									}
								}
								JOINT LThumb
								{
									OFFSET 0.000000 0.000000 0.000000
									CHANNELS 3 Zrotation Yrotation Xrotation
									End Site
									{
										OFFSET 0.000000 0.000000 0.000000
									}
								}
							}
						}
					}
				}
				JOINT RightShoulder
				{
					OFFSET 0.000000 0.000000 0.000000
					CHANNELS 3 Zrotation Yrotation Xrotation
					JOINT RightArm
					{
						OFFSET -3.136600 1.374050 -0.404650
						CHANNELS 3 Zrotation Yrotation Xrotation
						JOINT RightForeArm
						{
							OFFSET -5.241900 -0.000000 -0.000000
							CHANNELS 3 Zrotation Yrotation Xrotation
							JOINT RightHand
							{
								OFFSET -3.444170 -0.000000 -0.000000
								CHANNELS 3 Zrotation Yrotation Xrotation
								JOINT RightFingerBase
								{
									OFFSET 0.000000 0.000000 0.000000
									CHANNELS 3 Zrotation Yrotation Xrotation
									JOINT RightHandIndex1
									{
										OFFSET -0.622530 -0.000000 -0.000000
										CHANNELS 3 Zrotation Yrotation Xrotation
										End Site
										{
											OFFSET 0.000000 0.000000 0.000000
										}
									}
								}
								JOINT RThumb
								{
									OFFSET 0.000000 0.000000 0.000000
									CHANNELS 3 Zrotation Yrotation Xrotation
									End Site
									{
										OFFSET 0.000000 0.000000 0.000000
									}
								}
							}
						}
					}
				}
			}
		}
	}
}
MOTION
Frames: 12
Frame Time: 0.008333
-9.650068 17.008757 -0.852033 3.877177 83.960558 11.956612 -9.596404 1.005467 5.329639 -13.021713 -8.627852 -30.355270 -2.403780 -0.221702 15.411586 0.451229 1.949574 -3.014978 0.369300 0.000000 -19.024900 10.641464 -4.394475 -1.635987 0.287525 -17.786086 -0.257000 -0.142287 -2.699209 36.905533 -0.862398 6.710889 30.843000 4.521400 0.000000 -86.830700 -1.787425 2.778223 -5.345050 -1.710462 2.650788 -4.038247 -7.640437 2.657176 0.320437 11.132241 -6.676523 -8.025137 -3.534000 -0.277487 -0.098048 0.000000 0.000000 0.000000 -1.038761 24.204022 0.538357 -58.670887 20.574708 -9.171346 -0.776676 -73.912846 0.005654 12.681449 -3.774485 -0.431631 -0.224427 0.060016 0.000000 0.000000 0.000000 0.000000 0.000000 0.000000 0.000000 16.510154 3.290510 -1.598637 74.335786 15.097134 17.443181 1.218402 66.139923 -0.004042 -2.014088 6.394791 -0.120144 0.048215 -0.380818 -0.000000 0.000000 0.000000 0.000000 0.000000 0.000000 0.000000 
-9.429849 17.000319 -0.842687 11.348319 84.342393 19.057182 -9.531762 1.084320 5.228060 -14.182525 -8.520156 -29.531203 -2.470804 -0.129469 16.218951 0.388895 1.694841 -2.597038 0.366400 0.000000 -17.667400 10.884377 -4.211513 -1.841076 -1.004193 -18.994639 -1.415275 -0.332791 -2.771606 39.976079 -1.277066 3.672723 32.377854 2.929800 -0.000000 -81.884100 -2.390013 2.539003 -5.092226 -1.812666 2.475509 -3.988872 -7.616719 2.479749 0.303329 11.176543 -6.755694 -8.045025 -3.578892 -0.280189 -0.108953 0.000000 0.000000 0.000000 -1.035218 23.947529 0.500262 -58.769427 19.978562 -8.892005 -0.755662 -74.321713 0.004361 12.685854 -3.779248 -0.432919 -0.224278 0.066058 0.000000 0.000000 0.000000 0.000000 0.000000 0.000000 0.000000 16.865475 3.078622 -1.530770 74.452762 14.417097 16.888266 1.274366 64.914222 -0.002895 -1.830853 6.188085 -0.105716 0.046920 -0.368308 -0.000000 0.000000 0.000000 0.000000 0.000000 0.000000 0.000000 
-9.213013 16.991679 -0.834360 18.642068 84.645933 26.012339 -9.417837 1.174185 5.111096 -15.294633 -8.305245 -28.703118 -2.545134 -0.053683 16.970733 0.329655 1.397213 -2.392309 0.345801 0.000000 -16.253599 11.143129 -4.010143 -2.020709 -2.120354 -20.010674 -2.635565 -0.480075 -2.859950 43.062001 -1.667383 0.222367 32.986777 0.916700 -0.000000 -75.859800 -2.877239 2.302813 -4.832711 -1.893105 2.292476 -3.935717 -7.592908 2.296498 0.289539 11.203150 -6.837284 -8.069218 -3.626007 -0.283022 -0.121085 0.000000 0.000000 0.000000 -1.077241 23.679031 0.456428 -58.886055 19.299754 -8.554911 -0.736032 -74.710784 0.003042 12.693424 -3.784440 -0.434504 -0.223964 0.072169 0.000000 0.000000 0.000000 0.000000 0.000000 0.000000 0.000000 17.206859 2.852666 -1.460453 74.530303 13.747028 16.305174 1.330529 63.653071 -0.002068 -1.713409 6.023126 -0.096282 0.046713 -0.355961 -0.000000 0.000000 0.000000 0.000000 0.000000 0.000000 0.000000 
-8.999248 16.983718 -0.827776 25.244295 84.841807 32.318459 -9.273452 1.283466 4.990529 -16.309718 -8.016498 -27.878353 -2.621425 0.010220 17.649355 0.278902 1.084198 -2.407594 0.312000 -0.000000 -14.857600 11.396091 -3.793319 -2.170207 -3.024360 -20.782231 -3.930124 -0.607991 -2.970046 46.121512 -2.014176 -3.308539 32.636617 -1.204100 0.000000 -69.487600 -3.241891 2.086718 -4.585967 -1.950647 2.117471 -3.883493 -7.570594 2.122345 0.279472 11.212681 -6.922780 -8.096931 -3.675439 -0.286038 -0.133824 0.000000 0.000000 0.000000 -1.173395 23.408331 0.403151 -59.022332 18.548046 -8.169170 -0.717629 -75.075094 0.001733 12.706928 -3.791695 -0.436386 -0.223516 0.078218 0.000000 0.000000 0.000000 0.000000 0.000000 0.000000 0.000000 17.534737 2.618724 -1.386493 74.560008 13.085137 15.701800 1.387564 62.361350 -0.001532 -1.665068 5.901952 -0.091739 0.047685 -0.343831 -0.000000 0.000000 0.000000 0.000000 0.000000 0.000000 0.000000 
-8.788203 16.977352 -0.823240 30.860885 84.928598 37.691707 -9.124364 1.406485 4.877223 -17.203371 -7.702092 -27.053474 -2.696043 0.062751 18.228143 0.241260 0.790940 -2.627470 0.271600 -0.000000 -13.550100 11.620047 -3.570977 -2.285386 -3.704563 -21.278748 -5.316728 -0.733117 -3.103748 49.114040 -2.304709 -6.587622 31.408413 -3.110800 -0.000000 -63.365900 -3.503793 1.896179 -4.371381 -1.988628 1.957403 -3.835869 -7.550028 1.963361 0.276117 11.208881 -7.018349 -8.129095 -3.726830 -0.289222 -0.147184 0.000000 0.000000 0.000000 -1.321271 23.145652 0.338846 -59.181860 17.723032 -7.738170 -0.701003 -75.401428 0.000446 12.726696 -3.802232 -0.438864 -0.223003 0.084186 0.000000 0.000000 0.000000 0.000000 0.000000 0.000000 0.000000 17.853514 2.372943 -1.309209 74.536937 12.433968 15.089070 1.446121 61.042070 -0.001254 -1.686832 5.825145 -0.091686 0.049836 -0.331941 -0.000000 0.000000 0.000000 0.000000 0.000000 0.000000 0.000000 
-8.579406 16.973463 -0.821297 35.240504 84.928210 41.893144 -8.996800 1.531324 4.778316 -17.951721 -7.391277 -26.239074 -2.765158 0.102859 18.697788 0.217725 0.532368 -3.027861 0.228799 -0.000000 -12.385200 11.795676 -3.358726 -2.358163 -4.137431 -21.478379 -6.816571 -0.863377 -3.257734 51.998046 -2.532115 -9.376255 29.457083 -4.578299 0.000000 -57.852300 -3.668028 1.730545 -4.208877 -2.007073 1.812023 -3.797455 -7.531141 1.818549 0.277157 11.190698 -7.119320 -8.161100 -3.780004 -0.292662 -0.159572 0.000000 0.000000 0.000000 -1.528829 22.881452 0.264095 -59.360689 16.852828 -7.273562 -0.685845 -75.696371 -0.000792 12.750976 -3.815167 -0.441836 -0.222483 0.089960 0.000000 0.000000 0.000000 0.000000 0.000000 0.000000 0.000000 18.158633 2.120264 -1.229285 74.460790 11.778133 14.462553 1.506071 59.705488 -0.001179 -1.772202 5.788350 -0.095726 0.052970 -0.320245 -0.000000 0.000000 0.000000 0.000000 0.000000 0.000000 0.000000 
-8.372459 16.972634 -0.821554 38.477255 84.861644 45.019269 -8.895573 1.647867 4.699408 -18.565554 -7.129223 -25.416502 -2.828463 0.126578 19.026156 0.210572 0.342912 -3.565099 0.189100 -0.000000 -11.401100 11.924744 -3.165075 -2.386076 -4.350930 -21.392184 -8.433987 -0.999780 -3.426281 54.737299 -2.692489 -11.529238 26.952555 -5.492801 0.000000 -53.040799 -3.760706 1.583706 -4.107684 -2.010682 1.677711 -3.768222 -7.513301 1.684313 0.289453 11.165513 -7.239040 -8.197525 -3.833319 -0.296188 -0.172274 0.000000 0.000000 0.000000 -1.774742 22.631856 0.179733 -59.568372 15.918940 -6.768373 -0.673581 -75.934866 -0.002010 12.777090 -3.831905 -0.445205 -0.222028 0.095732 0.000000 0.000000 0.000000 0.000000 0.000000 0.000000 0.000000 18.455534 1.844767 -1.149571 74.335966 11.128729 13.836252 1.567650 58.353024 -0.001265 -1.918373 5.787212 -0.103557 0.056994 -0.308696 -0.000000 0.000000 0.000000 0.000000 0.000000 0.000000 0.000000 
-8.166958 16.975334 -0.824105 40.551944 84.752313 47.053498 -8.827645 1.750144 4.641129 -19.043154 -6.917783 -24.593748 -2.884374 0.132803 19.211445 0.217944 0.221277 -4.201910 0.152500 -0.000000 -10.606200 12.006868 -2.996583 -2.363734 -4.348801 -21.027905 -10.164781 -1.139127 -3.599069 57.289708 -2.785527 -13.015287 24.067123 -5.862000 0.000000 -48.924500 -3.778815 1.452043 -4.075674 -1.998353 1.550745 -3.750547 -7.496174 1.556718 0.308919 11.131607 -7.370773 -8.232789 -3.885951 -0.299837 -0.183562 0.000000 0.000000 0.000000 -2.061202 22.381207 0.088094 -59.800404 14.956709 -6.235115 -0.663590 -76.130835 -0.003199 12.799062 -3.849505 -0.448670 -0.221615 0.101444 0.000000 0.000000 0.000000 0.000000 0.000000 0.000000 0.000000 18.734984 1.553029 -1.071144 74.171655 10.468916 13.198792 1.630302 56.997386 -0.001442 -2.112146 5.812398 -0.114383 0.061613 -0.297232 0.000000 0.000000 0.000000 0.000000 0.000000 0.000000 0.000000 
-7.962582 16.981648 -0.828237 41.670586 84.608523 48.195167 -8.784471 1.837185 4.603323 -19.412256 -6.769552 -23.754356 -2.934410 0.119812 19.230748 0.239653 0.182509 -4.889793 0.120000 0.000000 -9.993600 12.053700 -2.849914 -2.292178 -4.182145 -20.416646 -11.985535 -1.274949 -3.766451 59.616847 -2.811813 -13.850931 20.948034 -5.756900 0.000000 -45.376300 -3.743426 1.330227 -4.110822 -1.974178 1.427759 -3.742575 -7.478801 1.432696 0.340706 11.095248 -7.524824 -8.270977 -3.935572 -0.303368 -0.194677 0.000000 0.000000 0.000000 -2.363622 22.144815 -0.009167 -60.063840 13.951556 -5.664844 -0.656919 -76.266443 -0.004401 12.812362 -3.867140 -0.451732 -0.221274 0.107316 0.000000 0.000000 0.000000 0.000000 0.000000 0.000000 0.000000 18.997114 1.233540 -0.997027 73.979564 9.807740 12.557464 1.693759 55.644442 -0.001664 -2.345577 5.855634 -0.127806 0.066670 -0.285822 0.000000 0.000000 0.000000 0.000000 0.000000 0.000000 0.000000 
-7.759084 16.991583 -0.833576 41.963136 84.438938 48.563891 -8.762716 1.910576 4.580541 -19.691440 -6.663174 -22.894343 -2.979276 0.088536 19.082525 0.272309 0.213441 -5.588309 0.089700 0.000000 -9.535700 12.071448 -2.720704 -2.172930 -3.888058 -19.588260 -13.860233 -1.398985 -3.918276 61.676018 -2.775770 -14.107454 17.740729 -5.301100 -0.000001 -42.349400 -3.659543 1.214213 -4.205655 -1.938857 1.305260 -3.743763 -7.460224 1.308755 0.380646 11.055243 -7.695869 -8.307918 -3.980944 -0.306725 -0.204480 0.000000 0.000000 0.000000 -2.675930 21.909083 -0.108942 -60.354960 12.932809 -5.067348 -0.652868 -76.357161 -0.005627 12.811644 -3.881395 -0.453992 -0.220949 0.113368 0.000000 0.000000 0.000000 0.000000 0.000000 0.000000 0.000000 19.232401 0.891578 -0.927989 73.773479 9.135048 11.900158 1.757186 54.307994 -0.001879 -2.604636 5.906631 -0.142927 0.071898 -0.274455 0.000000 0.000000 0.000000 0.000000 0.000000 0.000000 0.000000 
-7.556338 17.004810 -0.839435 41.650138 84.245323 48.365909 -8.754128 1.973957 4.566815 -19.910140 -6.580107 -21.998653 -3.021011 0.039991 18.757905 0.312720 0.303990 -6.255334 0.060700 -0.000001 -9.200700 12.069287 -2.600785 -2.011159 -3.520517 -18.584025 -15.747499 -1.502888 -4.047169 63.431376 -2.684894 -13.877157 14.577440 -4.630200 -0.000000 -39.810700 -3.543086 1.098768 -4.347596 -1.895350 1.179516 -3.751870 -7.439244 1.181301 0.427488 11.013304 -7.883728 -8.342790 -4.020604 -0.309770 -0.212889 0.000000 0.000000 0.000000 -2.982300 21.670417 -0.208263 -60.672564 11.912239 -4.444703 -0.651190 -76.409876 -0.006903 12.793237 -3.889255 -0.454851 -0.220612 0.119709 0.000000 0.000000 0.000000 0.000000 0.000000 0.000000 0.000000 19.436007 0.526596 -0.865182 73.567193 8.450060 11.221102 1.819732 53.000768 -0.002056 -2.877727 5.956857 -0.159048 0.077099 -0.263164 0.000000 0.000000 0.000000 0.000000 0.000000 0.000000 0.000000 
-7.354257 17.020896 -0.845211 40.950842 84.030641 47.804357 -8.752272 2.031415 4.554743 -20.094370 -6.493143 -21.053829 -3.061659 -0.024040 18.254239 0.356425 0.434357 -6.853780 0.032700 0.000000 -8.956700 12.054211 -2.482290 -1.813773 -3.126807 -17.449532 -17.606625 -1.580104 -4.148317 64.854222 -2.550962 -13.273420 11.581077 -3.874600 0.000001 -37.780300 -3.407899 0.977966 -4.521151 -1.846078 1.046004 -3.764241 -7.414521 1.045929 0.479418 10.969713 -8.087920 -8.374874 -4.053401 -0.312378 -0.219847 0.000000 0.000000 0.000000 -3.270480 21.423537 -0.304176 -61.012596 10.902492 -3.799507 -0.651457 -76.435703 -0.008255 12.755949 -3.887834 -0.454110 -0.220253 0.126426 0.000000 0.000000 0.000000 0.000000 0.000000 0.000000 0.000000 19.602885 0.137826 -0.809318 73.371729 7.752475 10.515074 1.880415 51.737188 -0.002168 -3.154504 5.998766 -0.175270 0.082114 -0.251993 0.000000 0.000000 0.000000 0.000000 0.000000 0.000000 0.000000 
